{"title":"Ella Eyre - Swing Low Sweet Chariot (England Rugby 2015)","uid":12451554,"size":95957312,"categoryP":"video","categoryS":"music_videos","magnet":"?xt=urn:btih:60718fb467ca36ef885974c6c78841ea27db0b4c&amp;dn=Ella+Eyre+-+Swing+Low+Sweet+Chariot+%28England+Rugby+2015%29&amp;tr=udp%3A%2F%2Ftracker.openbittorrent.com%3A80&amp;tr=udp%3A%2F%2Fopen.demonii.com%3A1337&amp;tr=udp%3A%2F%2Ftracker.coppersurfer.tk%3A6969&amp;tr=udp%3A%2F%2Fexodus.desync.com%3A6969","seeders":11,"leechers":0,"uploader":"MeRaDil","files":1,"time":1442690755,"description":"ELLA EYRE - SWING LOW SWEET CHARIOT\n\n &lt;a href=&quot;\nhttp://gifyu.com/images/ella-1.png&quot; rel=&quot;nofollow&quot; target=&quot;_NEW&quot;&gt;\nhttp://gifyu.com/images/ella-1.png&lt;/a&gt;\n &lt;a href=&quot;\nhttps://thepiratebay.la/user/MeRaDil&quot; rel=&quot;nofollow&quot; target=&quot;_NEW&quot;&gt;\nhttps://thepiratebay.la/user/MeRaDil&lt;/a&gt;\n\n\nMEDIA INFO\nElla Eyre - Swing Low Sweet Chariot\nFormat                                   : PROMO MPEG-4\nFormat profile                           : Base Media\nCodec ID                                 : isom\nFile size                                : 91.5 MiB\nDuration                                 : 3mn 10s\nOverall bit rate                         : 4 030 Kbps\nMusicVid name                            : Swing Low Sweet Chariot\nPerformer                                : Ella Eyre\nGenre                                    : RnB/Pop\nContentType                              : Music Video\nRecorded date                            : 2015\nCover                                    : Yes\nComment                                  : England Rugby 2015\nRating                                   : ***\nMake                                     : MeRaDil\nArtist url                               : http://www.ellaeyre.com/\nRelease date                             : UK . september 10 . 2015\n\nVideo\nID                                       : 1\nFormat                                   : AVC\nFormat/Info                              : Advanced Video Codec\nFormat profile                           : &lt;a class=&quot;__cf_email__&quot; href=&quot;/cdn-cgi/l/email-protection&quot; data-cfemail=&quot;aee6c7c9c6eee29a809e&quot;&gt;[email&amp;#160;protected]&lt;/a&gt;&lt;script data-cfhash='f9e31' type=&quot;text/javascript&quot;&gt;\n/* &lt;![CDATA[ */!function(){try{var t=&quot;currentScript&quot;in document?document.currentScript:function(){for(var t=document.getElementsByTagName(&quot;script&quot;),e=t.length;e--;)if(t[e].getAttribute(&quot;data-cfhash&quot;))return t[e]}();if(t&amp;&amp;t.previousSibling){var e,r,n,i,c=t.previousSibling,a=c.getAttribute(&quot;data-cfemail&quot;);if(a){for(e=&quot;&quot;,r=parseInt(a.substr(0,2),16),n=2;a.length-n;n+=2)i=parseInt(a.substr(n,2),16)^r,e+=String.fromCharCode(i);e=document.createTextNode(e),c.parentNode.replaceChild(e,c)}t.parentNode.removeChild(t);}}catch(u){}}()/* ]]&gt; */&lt;/script&gt;\nFormat settings, CABAC                   : Yes\nFormat settings, ReFrames                : 2 frames\nCodec ID                                 : avc1\nCodec ID/Info                            : Advanced Video Coding\nDuration                                 : 3mn 10s\nBit rate                                 : 3 749 Kbps\nWidth                                    : 1 920 pixels\nHeight                                   : 1 080 pixels\nDisplay aspect ratio                     : 16:9\nFrame rate mode                          : Constant\nFrame rate                               : 25.000 fps\nColor space                              : YUV\nChroma subsampling                       : 4:2:0\nBit depth                                : 8 bits\nScan type                                : Progressive\nBits/(Pixel*Frame)                       : 0.072\nStream size                              : 85.1 MiB (93%)\n\nAudio\nID                                       : 2\nFormat                                   : AAC\nFormat/Info                              : Advanced Audio Codec\nFormat profile                           : LC\nCodec ID                                 : 40\nDuration                                 : 3mn 10s\nBit rate mode                            : Constant\nBit rate                                 : 256 Kbps\nChannel(s)                               : 2 channels\nChannel positions                        : Front: L R\nSampling rate                            : 44.1 KHz\nCompression mode                         : Lossy\nStream size                              : 5.81 MiB (6%)\n\nElla Eyre * England Rugby 2015 * Promo","torrent":{"xt":"urn:btih:60718fb467ca36ef885974c6c78841ea27db0b4c","amp;dn":"Ella+Eyre+-+Swing+Low+Sweet+Chariot+%28England+Rugby+2015%29","amp;tr":["udp%3A%2F%2Ftracker.openbittorrent.com%3A80","udp%3A%2F%2Fopen.demonii.com%3A1337","udp%3A%2F%2Ftracker.coppersurfer.tk%3A6969","udp%3A%2F%2Fexodus.desync.com%3A6969"],"infoHash":"60718fb467ca36ef885974c6c78841ea27db0b4c","infoHashBuffer":{"type":"Buffer","data":[96,113,143,180,103,202,54,239,136,89,116,198,199,136,65,234,39,219,11,76]},"announce":[],"urlList":[]}}